<?xml version="1.0" standalone="no"?>
<!DOCTYPE svg PUBLIC "-//W3C//DTD SVG 20010904//EN"
 "http://www.w3.org/TR/2001/REC-SVG-20010904/DTD/svg10.dtd">
<svg version="1.0" xmlns="http://www.w3.org/2000/svg"
 width="16.000000pt" height="16.000000pt" viewBox="0 0 16.000000 16.000000"
 preserveAspectRatio="xMidYMid meet">
<metadata>
Created by potrace 1.11, written by Peter Selinger 2001-2013
</metadata>
<g transform="translate(0.000000,16.000000) scale(0.002413,-0.002413)"
fill="#000000" stroke="none">
<path d="M4065 6520 c-27 -16 -53 -26 -59 -23 -5 3 -6 2 -3 -4 3 -5 -13 -20
-36 -32 -23 -12 -73 -42 -112 -66 -38 -25 -75 -45 -82 -45 -6 0 -13 -4 -15 -8
-5 -12 -108 -73 -108 -64 0 4 -4 2 -8 -4 -10 -16 -94 -67 -109 -67 -7 0 -13
-4 -13 -8 0 -8 -134 -89 -148 -89 -6 0 -12 -4 -14 -8 -4 -11 -201 -128 -210
-124 -5 1 -8 -2 -8 -7 0 -9 -56 -46 -73 -49 -4 -1 -17 -11 -27 -24 -11 -13
-19 -19 -20 -15 0 5 -12 -5 -26 -22 -14 -17 -30 -28 -35 -25 -5 3 -8 0 -7 -8
2 -7 -3 -12 -10 -10 -8 1 -11 -2 -8 -6 7 -12 -28 -44 -38 -35 -4 5 -6 3 -4 -4
2 -6 -19 -35 -46 -64 -27 -29 -43 -48 -36 -44 14 8 -38 -65 -53 -76 -5 -3 -8
-9 -8 -13 3 -20 0 -26 -11 -20 -6 4 -8 3 -5 -3 3 -5 -3 -24 -14 -41 -10 -18
-19 -39 -19 -48 0 -8 -4 -12 -10 -9 -5 3 -7 0 -4 -8 3 -8 -2 -21 -10 -30 -8
-8 -13 -17 -10 -19 2 -3 -2 -21 -11 -41 -13 -31 -20 -59 -41 -152 -17 -74 -22
-278 -10 -360 13 -90 24 -145 33 -165 6 -16 11 -31 16 -52 1 -7 7 -20 12 -28
5 -8 11 -24 12 -35 2 -10 8 -22 15 -26 6 -4 7 -12 4 -18 -4 -6 -3 -11 2 -11 4
0 14 -16 22 -35 8 -19 18 -35 22 -35 5 0 6 -5 3 -10 -3 -6 1 -13 9 -16 9 -3
13 -10 10 -15 -3 -5 0 -9 6 -9 6 0 8 -4 5 -10 -3 -5 -1 -10 4 -10 6 0 11 -7
11 -15 0 -8 4 -15 8 -15 4 0 14 -16 21 -35 7 -19 17 -35 22 -35 5 0 9 -7 9
-15 0 -8 5 -15 11 -15 5 0 8 -4 5 -9 -3 -5 1 -14 9 -21 8 -7 15 -19 15 -26 0
-8 4 -14 9 -14 5 0 12 -11 15 -25 4 -14 11 -25 16 -25 6 0 10 -5 10 -12 0 -6
10 -23 23 -36 12 -14 15 -21 7 -17 -8 5 -3 -7 13 -27 15 -20 27 -41 27 -47 0
-6 5 -11 11 -11 5 0 8 -4 5 -9 -3 -5 1 -14 9 -21 8 -7 15 -16 15 -21 0 -8 40
-73 60 -96 6 -7 8 -13 4 -13 -3 0 0 -7 7 -16 17 -21 37 -55 45 -76 3 -10 9
-18 13 -18 4 0 13 -16 21 -35 7 -19 17 -32 22 -29 5 3 6 10 3 15 -4 5 -2 9 3
9 6 0 13 17 17 37 4 21 10 42 13 48 4 5 7 12 7 15 5 30 19 78 27 88 6 6 8 12
5 12 -3 0 1 16 9 35 8 20 12 40 9 45 -4 6 -1 10 5 10 6 0 9 4 5 9 -3 5 0 13 6
16 5 4 8 13 5 21 -3 8 -2 14 3 14 4 0 8 6 9 13 1 19 9 49 22 82 6 17 11 30 10
30 -1 0 1 7 4 15 29 89 61 198 60 208 -1 6 2 12 7 12 5 0 9 11 9 23 0 13 3 27
7 31 4 3 8 13 10 21 7 35 9 41 16 53 5 6 6 12 3 12 -3 0 2 16 10 35 8 19 12
35 10 35 -3 0 2 17 10 37 9 20 17 44 19 52 2 9 12 44 24 78 12 35 23 71 25 80
1 10 6 27 10 38 20 53 26 72 29 90 2 11 9 32 15 48 7 15 14 40 17 55 8 34 10
41 22 72 6 14 9 28 6 33 -2 4 0 7 5 7 5 0 9 6 10 13 0 6 3 23 7 37 3 14 8 32
10 40 2 8 4 16 5 18 2 1 4 7 5 12 1 6 4 12 5 15 1 3 4 10 5 15 1 6 4 12 5 15
1 3 4 10 5 15 1 6 3 11 4 13 2 1 4 13 7 26 2 14 9 30 14 36 5 7 7 15 4 18 -3
3 -2 12 2 19 9 14 12 24 21 68 3 16 10 30 15 30 6 0 8 6 5 14 -3 8 -3 17 1 21
4 4 8 11 8 16 1 5 2 10 3 12 2 1 4 13 7 26 2 14 9 30 14 36 5 7 7 15 3 18 -3
4 0 13 7 22 7 8 9 15 5 15 -4 0 -2 7 5 15 7 8 10 15 6 15 -3 0 -1 12 5 28 6
15 13 38 16 52 2 13 9 30 15 37 6 7 7 13 3 13 -4 0 -2 7 5 15 7 8 9 15 5 15
-4 0 -2 6 4 13 6 8 8 16 5 19 -2 3 2 23 10 44 8 22 17 48 22 59 4 11 8 25 9
30 8 48 20 75 31 75 10 0 13 -12 12 -40 -1 -22 -4 -40 -8 -40 -3 0 -6 -12 -6
-27 -1 -16 -4 -41 -7 -58 -17 -77 -20 -91 -31 -160 -1 -5 -4 -14 -7 -20 -4 -5
-5 -18 -4 -27 2 -10 0 -18 -3 -18 -4 0 -8 -12 -8 -27 -1 -26 -6 -51 -19 -113
-7 -27 -11 -47 -20 -100 -4 -19 -8 -44 -10 -55 -3 -11 -7 -36 -10 -55 -8 -46
-12 -70 -19 -100 -14 -63 -17 -77 -21 -100 -6 -39 -19 -110 -30 -162 -4 -15
-8 -39 -10 -55 -2 -15 -7 -39 -10 -53 -4 -14 -8 -36 -10 -50 -2 -14 -4 -25 -5
-25 -2 0 -6 -18 -14 -65 -3 -19 -8 -46 -11 -60 -3 -14 -8 -38 -10 -55 -3 -16
-7 -40 -10 -52 -12 -54 -15 -67 -20 -110 -2 -24 -7 -48 -9 -52 -3 -4 -8 -22
-11 -39 -3 -18 -8 -47 -11 -64 -3 -18 -8 -42 -10 -53 -1 -11 -5 -31 -9 -45 -3
-14 -7 -39 -9 -57 -3 -18 -7 -36 -9 -40 -3 -5 -9 -31 -12 -58 -9 -67 -13 -90
-15 -90 -1 0 -3 -8 -5 -18 -2 -10 -11 -54 -20 -99 -9 -45 -18 -96 -20 -114 -1
-18 -5 -36 -8 -41 -3 -4 -8 -30 -11 -57 -4 -27 -9 -52 -11 -56 -2 -3 -6 -25
-10 -50 -4 -25 -9 -49 -12 -54 -8 -12 94 45 117 67 11 9 22 17 25 17 8 -1 129
72 136 83 3 5 9 8 13 8 19 -3 27 0 22 7 -3 5 0 9 7 9 15 0 181 102 185 114 2
5 8 7 12 4 5 -3 18 3 30 15 11 11 22 20 25 20 14 1 74 34 70 40 -2 4 1 7 8 7
14 0 141 74 145 85 2 5 8 8 13 8 19 0 159 113 152 123 -3 5 -1 7 4 4 9 -6 43
26 126 121 15 18 27 34 27 38 0 3 11 20 24 37 36 47 117 207 111 218 -4 5 -1
9 5 9 7 0 10 6 7 14 -3 8 -2 16 3 18 5 2 11 15 14 30 2 15 7 31 10 36 3 5 7
19 10 33 3 13 8 35 11 49 19 86 26 308 12 390 -3 19 -9 53 -12 75 -4 22 -10
44 -15 49 -5 5 -6 14 -4 21 3 7 1 16 -5 19 -6 4 -8 13 -4 21 3 8 0 15 -7 15
-6 0 -9 4 -5 9 3 5 1 12 -5 16 -6 4 -8 10 -5 15 3 5 1 11 -5 15 -6 4 -8 11 -5
16 4 5 1 9 -5 9 -6 0 -8 5 -5 10 3 6 2 10 -3 10 -9 0 -26 46 -20 53 2 2 -5 11
-14 21 -10 10 -18 24 -18 32 0 8 -4 13 -9 10 -5 -3 -12 5 -15 19 -4 14 -11 25
-17 25 -6 0 -7 5 -4 10 3 6 1 10 -5 10 -6 0 -8 5 -5 10 3 6 -1 13 -9 16 -9 3
-13 10 -10 15 3 5 1 9 -3 9 -5 0 -14 9 -21 21 -11 17 -11 20 0 14 7 -3 5 0 -4
8 -10 8 -15 17 -11 20 3 4 2 7 -4 7 -6 0 -16 14 -23 30 -7 17 -16 30 -21 30
-5 0 -9 9 -9 19 0 10 -7 22 -16 25 -8 3 -12 10 -9 16 3 5 1 10 -5 10 -6 0 -8
5 -5 10 3 6 1 10 -5 10 -11 0 -35 48 -31 63 1 5 -3 6 -8 2 -6 -3 -13 6 -17 20
-3 14 -10 25 -16 25 -5 0 -6 5 -3 10 3 6 1 10 -5 10 -6 0 -8 5 -5 10 3 6 2 10
-4 10 -14 0 -42 55 -33 65 4 5 2 5 -5 1 -11 -6 -30 29 -25 47 1 5 -2 6 -7 2
-6 -3 -13 6 -17 20 -3 14 -10 25 -15 25 -5 0 -9 6 -9 14 0 7 -7 19 -15 26 -8
7 -12 16 -9 21 3 5 0 9 -5 9 -6 0 -11 7 -11 15 0 8 -4 15 -8 15 -10 0 -37 50
-34 63 1 4 -2 7 -7 7 -5 0 -30 36 -56 80 -26 44 -48 80 -48 80 -1 0 -24 -13
-52 -30z"/>
<path d="M1536 4872 c-2 -1 -23 -5 -47 -7 -24 -3 -51 -7 -59 -8 -8 -2 -33 -8
-55 -12 -55 -12 -54 -12 -60 -15 -3 -1 -9 -3 -14 -4 -5 0 -13 -4 -17 -8 -4 -5
-15 -8 -23 -8 -9 0 -33 -9 -53 -19 -19 -11 -38 -17 -41 -14 -4 3 -13 -2 -22
-11 -9 -9 -22 -16 -29 -16 -8 0 -19 -7 -26 -15 -7 -9 -19 -14 -27 -11 -8 3
-12 2 -9 -3 3 -4 -7 -14 -22 -22 -15 -7 -38 -21 -51 -31 -13 -10 -27 -15 -32
-12 -5 3 -9 1 -9 -3 0 -13 -56 -43 -65 -35 -5 4 -5 1 -1 -5 6 -12 -5 -18 -26
-14 -5 0 -8 -3 -8 -9 0 -8 -81 -56 -88 -51 -1 1 -12 -8 -24 -18 -11 -11 -25
-18 -30 -15 -4 3 -8 0 -8 -5 0 -6 -7 -11 -15 -11 -8 0 -15 -5 -15 -12 0 -6 -3
-9 -6 -5 -3 3 -11 2 -18 -4 -21 -18 -86 -58 -86 -54 0 3 -9 -3 -20 -13 -12 -9
-22 -15 -23 -12 -1 3 -13 -5 -26 -17 -13 -12 -28 -20 -33 -17 -4 3 -8 1 -8 -4
0 -5 -12 -15 -27 -22 -16 -8 -36 -21 -45 -29 -10 -8 -18 -11 -18 -7 0 4 -10
-2 -22 -13 -11 -11 -25 -18 -30 -15 -4 3 -8 0 -8 -6 0 -6 -4 -9 -9 -6 -5 3
-12 -1 -15 -10 -3 -8 -10 -12 -16 -9 -5 3 -10 1 -10 -4 0 -6 -5 -11 -11 -11
-6 0 -17 -7 -26 -15 -8 -8 -18 -13 -23 -10 -4 3 -11 -2 -14 -11 -3 -8 -10 -12
-16 -9 -5 3 -10 2 -10 -3 0 -10 -50 -37 -63 -34 -4 1 0 -9 9 -23 9 -14 12 -25
8 -25 -5 0 -1 -5 9 -11 9 -6 15 -14 12 -20 -4 -5 -1 -9 4 -9 6 0 11 -7 11 -15
0 -8 5 -15 10 -15 6 0 10 -5 10 -12 0 -6 6 -19 14 -27 8 -9 16 -23 18 -31 2
-8 10 -21 18 -28 13 -12 13 -13 0 -7 -8 4 -6 -1 4 -9 11 -9 16 -16 10 -16 -5
0 -1 -5 9 -11 9 -6 15 -14 12 -20 -4 -5 -1 -9 6 -9 7 0 9 -3 6 -7 -4 -3 1 -12
11 -20 11 -10 12 -12 2 -8 -10 4 -9 2 2 -8 10 -8 15 -17 11 -20 -3 -4 -1 -7 6
-7 7 0 17 -13 22 -30 6 -16 15 -30 21 -30 5 0 6 -4 3 -10 -3 -5 -1 -10 5 -10
6 0 9 -4 6 -9 -3 -5 1 -11 9 -15 8 -3 12 -12 9 -20 -3 -8 3 -19 14 -25 11 -6
22 -18 26 -26 4 -11 2 -14 -7 -9 -6 4 -2 -3 10 -15 13 -12 26 -33 29 -46 3
-14 10 -22 15 -19 5 3 9 -4 9 -15 0 -12 5 -21 12 -21 6 0 9 -3 5 -6 -3 -3 3
-15 13 -27 11 -11 17 -24 14 -29 -3 -4 0 -8 5 -8 6 0 11 -7 11 -15 0 -8 5 -15
11 -15 5 0 8 -4 5 -9 -3 -5 1 -12 10 -15 8 -3 13 -10 9 -16 -3 -5 3 -18 15
-30 11 -11 20 -24 20 -29 0 -4 9 -20 21 -35 11 -14 17 -26 12 -26 -4 0 1 -7
11 -15 11 -8 17 -15 13 -15 -9 0 43 -80 63 -98 13 -12 13 -13 0 -7 -8 4 -3 -5
13 -19 15 -14 28 -29 28 -33 2 -16 26 -43 32 -36 4 3 7 0 7 -8 0 -16 34 -49
51 -49 5 0 7 -4 4 -10 -3 -5 9 -19 27 -30 18 -11 29 -20 25 -20 -5 0 14 -18
42 -40 28 -22 53 -40 55 -40 3 0 24 -13 48 -28 85 -56 279 -139 299 -127 5 4
9 2 9 -3 0 -5 6 -9 13 -10 6 0 28 -4 47 -7 19 -4 55 -11 80 -15 92 -17 340 -6
400 17 8 4 18 5 22 5 30 -7 328 119 328 137 0 4 16 13 35 20 19 7 35 17 35 22
0 5 4 9 9 9 13 0 265 152 279 170 8 9 11 9 7 1 -5 -8 2 -7 21 5 16 10 31 21
34 24 3 3 22 14 43 25 21 11 46 27 56 35 9 8 23 16 30 18 20 4 61 33 61 44 0
5 4 7 8 4 5 -3 25 6 45 19 20 14 41 25 46 25 6 0 11 4 11 9 0 5 9 11 20 14 11
3 20 9 20 14 0 6 -73 34 -130 48 -3 1 -32 10 -65 20 -33 11 -62 20 -65 20 -3
1 -32 10 -65 20 -33 11 -64 20 -70 21 -5 0 -17 4 -25 7 -46 19 -105 35 -112
31 -4 -3 -8 0 -8 5 0 6 -7 11 -15 11 -8 0 -35 7 -61 16 -25 9 -54 17 -63 19
-9 2 -29 8 -46 15 -16 6 -32 12 -35 12 -9 1 -34 9 -58 19 -13 5 -28 7 -33 4
-5 -4 -9 -1 -9 5 0 7 -6 10 -14 7 -7 -3 -18 -1 -23 4 -5 5 -21 10 -36 11 -15
1 -27 6 -27 10 0 4 -11 8 -24 8 -14 0 -28 5 -31 10 -4 6 -12 10 -18 9 -7 -1
-25 3 -40 9 -16 7 -33 10 -38 6 -5 -3 -9 0 -9 6 0 6 -6 10 -12 9 -7 -1 -20 1
-28 4 -35 14 -117 40 -135 43 -17 2 -48 12 -105 32 -8 3 -19 7 -25 7 -5 1 -23
7 -39 14 -16 6 -36 13 -45 15 -9 2 -23 6 -31 9 -12 5 -68 21 -112 33 -5 1 -10
3 -13 4 -3 1 -9 4 -15 5 -5 1 -13 4 -17 5 -5 2 -12 4 -18 5 -5 1 -17 4 -25 8
-52 19 -110 35 -110 29 0 -4 -4 -2 -8 5 -4 6 -19 13 -32 15 -14 2 -31 7 -37
11 -7 5 -13 5 -13 1 0 -3 -7 -1 -15 6 -8 7 -15 10 -15 7 0 -3 -16 1 -35 9 -19
8 -38 15 -42 15 -12 2 -36 10 -61 20 -13 5 -27 7 -32 4 -5 -3 -11 -1 -15 5 -4
6 -11 8 -16 5 -5 -4 -9 -2 -9 2 0 5 -10 9 -22 10 -12 1 -33 6 -47 12 -14 5
-35 12 -46 17 -11 4 -29 9 -40 11 -11 2 -27 6 -35 10 -8 3 -18 7 -22 8 -5 2
-10 4 -13 5 -3 1 -9 4 -15 5 -5 1 -11 3 -12 5 -2 1 -16 4 -33 6 -16 3 -33 10
-36 16 -4 6 -12 7 -18 4 -6 -4 -11 0 -11 9 0 17 12 17 105 -1 17 -3 38 -6 48
-6 9 1 15 -2 13 -7 -3 -4 7 -7 22 -7 26 -1 57 -6 112 -19 14 -3 39 -7 56 -9
16 -2 39 -6 50 -9 10 -4 35 -9 54 -13 55 -9 78 -14 103 -19 24 -5 80 -15 112
-19 11 -2 21 -5 23 -6 1 -1 10 -3 20 -5 9 -1 35 -5 57 -10 104 -21 148 -28
168 -29 9 0 17 -3 17 -6 0 -3 8 -6 18 -7 20 -1 77 -10 112 -18 14 -3 41 -8 60
-11 19 -3 51 -9 70 -14 20 -5 53 -12 74 -14 21 -3 46 -8 56 -11 10 -3 32 -7
49 -10 17 -2 38 -6 48 -9 10 -3 34 -7 53 -10 19 -3 49 -8 65 -12 17 -3 41 -7
55 -9 14 -2 25 -5 25 -6 0 -1 9 -3 20 -5 52 -8 72 -12 95 -17 14 -4 41 -9 61
-11 20 -3 42 -8 50 -10 8 -3 32 -8 54 -11 22 -4 51 -9 65 -11 27 -4 41 -7 80
-17 22 -6 53 -11 116 -22 11 -1 45 -8 75 -14 30 -6 66 -13 82 -15 15 -3 36 -7
46 -11 11 -3 35 -8 53 -10 70 -10 103 -15 134 -24 43 -12 48 -5 21 33 -28 40
-43 63 -63 104 -9 17 -21 32 -27 32 -6 0 -8 3 -4 6 3 4 -7 26 -23 50 -17 23
-30 47 -30 53 0 6 -4 11 -10 11 -5 0 -10 7 -10 15 0 8 -5 15 -11 15 -5 0 -8 4
-5 8 3 5 -4 19 -15 30 -11 12 -17 22 -14 22 3 0 -8 20 -25 44 -16 25 -30 49
-30 55 0 6 -3 11 -7 11 -5 0 -17 18 -27 40 -11 22 -23 40 -28 40 -4 0 -7 3 -5
8 2 8 -62 113 -76 123 -5 3 -8 10 -8 15 1 5 -4 16 -11 24 -7 8 -19 27 -25 43
-7 15 -17 27 -23 27 -5 0 -9 3 -8 8 4 13 -34 66 -76 105 -22 20 -37 37 -33 37
4 0 -8 16 -27 35 -20 19 -38 35 -42 35 -4 0 -17 11 -30 25 -13 14 -27 25 -31
25 -5 0 -16 8 -25 18 -38 38 -61 57 -54 42 5 -9 2 -8 -7 2 -8 10 -17 15 -20
11 -4 -3 -7 -1 -7 6 0 7 -4 10 -9 7 -5 -3 -12 1 -15 9 -3 8 -9 14 -13 13 -12
-4 -73 26 -73 34 0 5 -8 8 -18 8 -10 0 -23 5 -30 12 -7 7 -12 8 -12 4 0 -5 -7
-3 -15 4 -8 7 -15 10 -15 6 0 -4 -13 0 -30 9 -16 9 -30 13 -30 9 0 -4 -7 -1
-15 6 -8 7 -15 10 -15 6 0 -3 -12 -1 -26 4 -15 6 -43 13 -63 15 -20 3 -54 8
-76 11 -41 6 -224 11 -229 6z"/>
<path d="M4790 4024 c-36 -8 -74 -16 -85 -18 -11 -3 -20 -5 -20 -6 0 -1 -10
-3 -23 -6 -22 -4 -120 -42 -172 -67 -47 -22 -325 -189 -331 -199 -3 -5 -10
-10 -15 -9 -5 0 -25 -10 -44 -21 -19 -12 -51 -31 -71 -42 -123 -71 -399 -241
-399 -246 0 -4 19 -12 43 -19 43 -12 249 -76 437 -136 58 -18 152 -47 210 -65
58 -18 159 -49 225 -70 66 -21 181 -57 255 -80 74 -23 176 -55 225 -70 340
-106 437 -137 575 -180 136 -43 323 -101 472 -146 57 -18 76 -38 27 -30 -19 3
-45 8 -59 11 -24 5 -316 61 -735 139 -104 20 -210 41 -235 46 -25 5 -58 12
-75 15 -16 2 -160 29 -320 59 -159 31 -303 58 -320 60 -16 3 -41 8 -55 11 -14
2 -36 7 -50 9 -14 3 -83 16 -155 30 -125 24 -154 29 -220 41 -42 8 -252 48
-312 61 l-23 4 20 -32 c10 -18 25 -44 33 -58 35 -65 425 -712 460 -763 161
-240 441 -416 749 -471 83 -15 318 -16 383 -2 17 4 49 11 73 17 136 30 241 81
527 254 116 70 226 136 245 147 19 12 49 29 65 39 17 10 46 28 65 39 68 40
106 63 251 151 l146 89 -302 504 c-166 276 -317 524 -335 551 -47 68 -183 204
-260 260 -133 97 -308 169 -490 203 -64 12 -318 9 -380 -4z"/>
<path d="M2700 2859 c-212 -127 -388 -236 -392 -243 -4 -6 -8 -7 -8 -3 0 10
-103 -61 -108 -75 -2 -4 -8 -8 -14 -8 -16 0 -213 -204 -198 -205 3 0 -4 -10
-16 -23 -51 -55 -161 -285 -177 -372 -3 -14 -8 -36 -11 -50 -15 -65 -18 -94
-21 -220 -5 -197 30 -360 110 -521 24 -47 429 -728 631 -1060 5 -9 1029 607
1098 660 227 175 385 453 431 756 7 49 8 258 1 282 -2 10 -7 40 -11 66 -7 61
-49 193 -86 275 -24 53 -483 827 -499 842 -3 3 -11 16 -17 30 l-11 25 -10 -25
c-6 -14 -32 -92 -57 -175 -53 -172 -110 -355 -189 -605 -30 -96 -95 -305 -145
-465 -100 -323 -228 -735 -260 -835 -26 -85 -112 -360 -118 -382 -9 -29 -25
-20 -19 9 4 16 8 37 10 48 47 247 67 354 70 370 2 11 11 58 20 105 9 47 18 94
20 105 6 29 67 355 72 385 3 14 11 59 19 100 55 283 96 501 101 535 3 22 8 43
10 46 2 4 6 24 10 45 3 22 19 108 35 193 16 85 31 166 34 180 3 14 19 100 35
191 17 91 33 179 35 197 2 18 6 37 10 43 3 5 5 10 3 10 -2 0 -176 -104 -388
-231z"/>
</g>
</svg>
